<?xml version="1.0" standalone="no"?><!DOCTYPE svg PUBLIC "-//W3C//DTD SVG 1.1//EN" "http://www.w3.org/Graphics/SVG/1.1/DTD/svg11.dtd"><svg t="1604372950493" class="icon" viewBox="0 0 1024 1024" version="1.1" xmlns="http://www.w3.org/2000/svg" p-id="815" xmlns:xlink="http://www.w3.org/1999/xlink" width="512" height="512"><defs><style type="text/css"></style></defs><path d="M200 672.515V352h64v320.515h-64z m256 0h-88l-96-320.076h64c52.793 176.271 76.344 263.046 76.344 263.046 0.997-5.057 20.856-87.772 83.656-263.047h65.203L456 672.515z m360-0.077h-68.759l-83.241-128h-32v128h-64l0.069-320h144.302c55.628 0 111.628 37.783 111.628 96 0 52.687-40 96-87.325 96l79.326 128z m-184-256v64h69.739c48.607 0 58.261-8 58.261-32s-10.675-32-58.261-32H632zM512 64C264.576 64 64 264.576 64 512s200.576 448 448 448 448-200.576 448-448S759.424 64 512 64z m0 832c-212.077 0-384-171.923-384-384s171.923-384 384-384 384 171.923 384 384-171.923 384-384 384z" fill="#d81e06" p-id="816"></path></svg>