<?xml version="1.0" standalone="no"?><!DOCTYPE svg PUBLIC "-//W3C//DTD SVG 1.1//EN" "http://www.w3.org/Graphics/SVG/1.1/DTD/svg11.dtd"><svg t="1604373047625" class="icon" viewBox="0 0 1024 1024" version="1.1" xmlns="http://www.w3.org/2000/svg" p-id="1095" xmlns:xlink="http://www.w3.org/1999/xlink" width="512" height="512"><defs><style type="text/css"></style></defs><path d="M69.818182 54.30303h155.151515a62.060606 62.060606 0 0 1 62.060606 62.060606v791.272728a62.060606 62.060606 0 0 1-62.060606 62.060606H69.818182a62.060606 62.060606 0 0 1-62.060606-62.060606V116.363636a62.060606 62.060606 0 0 1 62.060606-62.060606z m0 31.030303a31.030303 31.030303 0 0 0-31.030303 31.030303v791.272728a31.030303 31.030303 0 0 0 31.030303 31.030303h155.151515a31.030303 31.030303 0 0 0 31.030303-31.030303V116.363636a31.030303 31.030303 0 0 0-31.030303-31.030303H69.818182z m294.787879-31.030303h589.575757a62.060606 62.060606 0 0 1 62.060606 62.060606v791.272728a62.060606 62.060606 0 0 1-62.060606 62.060606H364.606061a46.545455 46.545455 0 0 1-46.545455-46.545455V100.848485a46.545455 46.545455 0 0 1 46.545455-46.545455z m0 31.030303a15.515152 15.515152 0 0 0-15.515152 15.515152v822.30303a15.515152 15.515152 0 0 0 15.515152 15.515152h589.575757a31.030303 31.030303 0 0 0 31.030303-31.030303V116.363636a31.030303 31.030303 0 0 0-31.030303-31.030303H364.606061z m47.484121 46.545455h510.122666c9.084121 0 16.453818 6.94303 16.453819 15.515151v186.181819c0 8.572121-7.369697 15.515152-16.453819 15.515151H412.082424C403.006061 349.090909 395.636364 342.147879 395.636364 333.575758V147.393939c0-8.572121 7.369697-15.515152 16.453818-15.515151z m16.453818 31.030303v155.151515h477.21503V162.909091H428.544zM418.909091 418.909091h124.121212a7.757576 7.757576 0 0 1 7.757576 7.757576v77.575757a7.757576 7.757576 0 0 1-7.757576 7.757576H418.909091a7.757576 7.757576 0 0 1-7.757576-7.757576V426.666667a7.757576 7.757576 0 0 1 7.757576-7.757576z m23.272727 31.030303v31.030303h77.575758v-31.030303H442.181818z m162.909091-31.030303h124.121212a7.757576 7.757576 0 0 1 7.757576 7.757576v77.575757a7.757576 7.757576 0 0 1-7.757576 7.757576H605.090909a7.757576 7.757576 0 0 1-7.757576-7.757576V426.666667a7.757576 7.757576 0 0 1 7.757576-7.757576z m23.272727 31.030303v31.030303h77.575758v-31.030303H628.363636z m162.909091-31.030303h124.121212a7.757576 7.757576 0 0 1 7.757576 7.757576v77.575757a7.757576 7.757576 0 0 1-7.757576 7.757576h-124.121212a7.757576 7.757576 0 0 1-7.757575-7.757576V426.666667a7.757576 7.757576 0 0 1 7.757575-7.757576z m23.272728 31.030303v31.030303h77.575757v-31.030303h-77.575757zM418.909091 550.787879h124.121212a7.757576 7.757576 0 0 1 7.757576 7.757576v77.575757a7.757576 7.757576 0 0 1-7.757576 7.757576H418.909091a7.757576 7.757576 0 0 1-7.757576-7.757576V558.545455a7.757576 7.757576 0 0 1 7.757576-7.757576z m23.272727 31.030303v31.030303h77.575758v-31.030303H442.181818z m162.909091-31.030303h124.121212a7.757576 7.757576 0 0 1 7.757576 7.757576v77.575757a7.757576 7.757576 0 0 1-7.757576 7.757576H605.090909a7.757576 7.757576 0 0 1-7.757576-7.757576V558.545455a7.757576 7.757576 0 0 1 7.757576-7.757576z m23.272727 31.030303v31.030303h77.575758v-31.030303H628.363636z m162.909091-31.030303h124.121212a7.757576 7.757576 0 0 1 7.757576 7.757576v77.575757a7.757576 7.757576 0 0 1-7.757576 7.757576h-124.121212a7.757576 7.757576 0 0 1-7.757575-7.757576V558.545455a7.757576 7.757576 0 0 1 7.757575-7.757576z m23.272728 31.030303v31.030303h77.575757v-31.030303h-77.575757zM418.909091 674.909091h124.121212a7.757576 7.757576 0 0 1 7.757576 7.757576v77.575757a7.757576 7.757576 0 0 1-7.757576 7.757576H418.909091a7.757576 7.757576 0 0 1-7.757576-7.757576V682.666667a7.757576 7.757576 0 0 1 7.757576-7.757576z m23.272727 31.030303v31.030303h77.575758v-31.030303H442.181818z m162.909091-31.030303h124.121212a7.757576 7.757576 0 0 1 7.757576 7.757576v77.575757a7.757576 7.757576 0 0 1-7.757576 7.757576H605.090909a7.757576 7.757576 0 0 1-7.757576-7.757576V682.666667a7.757576 7.757576 0 0 1 7.757576-7.757576z m23.272727 31.030303v31.030303h77.575758v-31.030303H628.363636z m162.909091-31.030303h124.121212a7.757576 7.757576 0 0 1 7.757576 7.757576v77.575757a7.757576 7.757576 0 0 1-7.757576 7.757576h-124.121212a7.757576 7.757576 0 0 1-7.757575-7.757576V682.666667a7.757576 7.757576 0 0 1 7.757575-7.757576z m23.272728 31.030303v31.030303h77.575757v-31.030303h-77.575757z m-395.636364 93.090909h124.121212a7.757576 7.757576 0 0 1 7.757576 7.757576v77.575757a7.757576 7.757576 0 0 1-7.757576 7.757576H418.909091a7.757576 7.757576 0 0 1-7.757576-7.757576v-77.575757a7.757576 7.757576 0 0 1 7.757576-7.757576z m23.272727 31.030303v31.030303h77.575758v-31.030303H442.181818z m162.909091-31.030303h124.121212a7.757576 7.757576 0 0 1 7.757576 7.757576v77.575757a7.757576 7.757576 0 0 1-7.757576 7.757576H605.090909a7.757576 7.757576 0 0 1-7.757576-7.757576v-77.575757a7.757576 7.757576 0 0 1 7.757576-7.757576z m23.272727 31.030303v31.030303h77.575758v-31.030303H628.363636z m162.909091-31.030303h124.121212a7.757576 7.757576 0 0 1 7.757576 7.757576v77.575757a7.757576 7.757576 0 0 1-7.757576 7.757576h-124.121212a7.757576 7.757576 0 0 1-7.757575-7.757576v-77.575757a7.757576 7.757576 0 0 1 7.757575-7.757576z m23.272728 31.030303v31.030303h77.575757v-31.030303h-77.575757zM709.818182 256h23.272727a3.878788 3.878788 0 0 1 3.878788 3.878788v23.272727a3.878788 3.878788 0 0 1-3.878788 3.878788h-23.272727a3.878788 3.878788 0 0 1-3.878788-3.878788v-23.272727a3.878788 3.878788 0 0 1 3.878788-3.878788z m62.060606 0h23.272727a3.878788 3.878788 0 0 1 3.878788 3.878788v23.272727a3.878788 3.878788 0 0 1-3.878788 3.878788h-23.272727a3.878788 3.878788 0 0 1-3.878788-3.878788v-23.272727a3.878788 3.878788 0 0 1 3.878788-3.878788z m62.060606 0h23.272727a3.878788 3.878788 0 0 1 3.878788 3.878788v23.272727a3.878788 3.878788 0 0 1-3.878788 3.878788h-23.272727a3.878788 3.878788 0 0 1-3.878788-3.878788v-23.272727a3.878788 3.878788 0 0 1 3.878788-3.878788z" fill="#2c2c2c" p-id="1096"></path></svg>